<svg width="285" height="284" viewBox="0 0 285 284" fill="none" xmlns="http://www.w3.org/2000/svg">
<g opacity="0.2" clip-path="url(#clip0_2234_8803)">
<path d="M142.248 0C63.6947 0 0.150391 63.5443 0.150391 142.097C0.150391 220.456 63.6947 284.195 142.248 284.195C220.606 284.195 284.345 220.651 284.345 142.097C284.15 63.5443 220.606 0 142.248 0ZM142.248 275.034C68.7626 275.034 9.31168 215.583 9.31168 142.097C9.31168 68.6122 68.7626 9.16129 142.248 9.16129C215.733 9.16129 275.184 68.6122 275.184 142.097C275.184 215.388 215.538 275.034 142.248 275.034Z" fill="white"/>
<path d="M142.249 30.6025C80.849 30.6025 30.9492 80.5023 30.9492 141.902C30.9492 203.303 80.849 253.202 142.249 253.202C203.649 253.202 253.549 203.498 253.549 142.097C253.549 80.5023 203.649 30.6025 142.249 30.6025ZM142.249 236.244C90.2052 236.244 47.9074 193.946 47.9074 141.902C47.9074 89.8585 90.2052 47.5607 142.249 47.5607C194.293 47.5607 236.591 89.8585 236.591 141.902C236.591 193.946 194.293 236.244 142.249 236.244Z" fill="white"/>
<path d="M142.248 79.5273C107.747 79.5273 79.6787 107.596 79.6787 142.097C79.6787 176.598 107.552 204.667 142.248 204.667C176.749 204.667 204.818 176.598 204.818 142.097C204.623 107.596 176.749 79.5273 142.248 79.5273ZM142.248 175.623C123.731 175.623 108.722 160.614 108.722 142.097C108.722 123.579 123.731 108.571 142.248 108.571C160.766 108.571 175.775 123.579 175.775 142.097C175.775 160.614 160.766 175.623 142.248 175.623Z" fill="white"/>
</g>
<defs>
<clipPath id="clip0_2234_8803">
<rect width="284" height="284" fill="white" transform="translate(0.150391)"/>
</clipPath>
</defs>
</svg>
